<?xml version="1.0" standalone="no"?>
<!DOCTYPE svg PUBLIC "-//W3C//DTD SVG 20010904//EN"
 "http://www.w3.org/TR/2001/REC-SVG-20010904/DTD/svg10.dtd">
<svg version="1.0" xmlns="http://www.w3.org/2000/svg"
 width="1764.000000pt" height="1764.000000pt" viewBox="0 0 1764.000000 1764.000000"
 preserveAspectRatio="xMidYMid meet">
<metadata>
Created by potrace 1.11, written by Peter Selinger 2001-2013
</metadata>
<g transform="translate(0.000000,1764.000000) scale(0.100000,-0.100000)"
fill="#000000" stroke="none">
<path d="M8955 16103 c-147 -32 -250 -87 -350 -188 -126 -125 -192 -277 -197
-447 -5 -219 97 -428 272 -554 120 -86 240 -126 385 -126 230 -1 436 110 560
302 74 114 106 225 106 360 -1 181 -65 334 -196 466 -131 131 -286 195 -470
193 -49 -1 -99 -3 -110 -6z"/>
<path d="M6945 14779 c-22 -4 -58 -9 -80 -12 -45 -6 -92 -15 -117 -23 -9 -3
-25 -7 -35 -9 -117 -27 -340 -143 -463 -240 -31 -25 -167 -160 -200 -200 -126
-150 -239 -401 -275 -612 -99 -581 192 -1148 727 -1414 313 -157 704 -176
1038 -52 425 158 733 510 835 957 41 178 41 414 -1 581 -34 138 -130 374 -155
383 -5 2 -9 8 -9 14 0 20 -94 143 -170 222 -250 262 -580 405 -945 410 -60 1
-128 -1 -150 -5z"/>
<path d="M10890 14774 c-478 -63 -883 -375 -1059 -816 -87 -216 -116 -443 -86
-666 14 -103 52 -258 75 -307 5 -11 22 -49 38 -85 107 -242 335 -482 582 -612
54 -28 139 -67 160 -73 3 -1 37 -11 75 -22 151 -45 268 -61 423 -57 85 2 129
8 257 30 59 11 209 65 289 105 187 94 378 254 493 416 50 70 102 164 140 253
210 492 105 1061 -267 1441 -76 77 -202 179 -269 218 -271 154 -559 213 -851
175z"/>
<path d="M4408 14125 c-2 -1 -28 -5 -58 -9 -218 -24 -412 -161 -510 -359 -91
-184 -96 -384 -14 -568 32 -71 108 -176 155 -217 17 -14 37 -31 44 -38 22 -22
138 -83 197 -103 67 -23 132 -32 218 -32 282 2 541 194 619 458 28 93 31 115
32 210 0 168 -65 327 -184 451 -46 47 -156 132 -172 132 -3 0 -24 9 -48 19
-65 30 -123 43 -239 55 -21 2 -39 2 -40 1z"/>
<path d="M13625 14118 c-269 -36 -490 -234 -560 -503 -15 -59 -21 -203 -10
-260 35 -187 145 -354 295 -450 52 -33 141 -75 170 -81 3 0 16 -4 30 -7 91
-24 229 -24 320 0 14 3 27 7 30 8 109 27 253 126 336 231 54 68 112 199 129
289 13 69 5 211 -15 283 -35 124 -112 253 -193 321 -16 14 -34 30 -41 36 -17
16 -86 58 -131 78 -80 37 -135 50 -275 61 -14 1 -52 -2 -85 -6z"/>
<path d="M4388 12135 c-2 -1 -39 -5 -83 -8 -44 -3 -102 -11 -130 -17 -27 -7
-59 -13 -70 -16 -59 -12 -163 -51 -261 -99 -453 -220 -740 -681 -738 -1185 1
-86 11 -217 18 -229 2 -3 7 -24 10 -46 21 -133 116 -353 211 -490 64 -91 231
-259 319 -319 246 -169 506 -247 801 -240 213 5 359 42 560 140 254 124 471
344 596 601 46 96 104 268 113 338 3 28 10 75 14 105 9 63 8 246 -2 305 -4 22
-9 54 -11 71 -3 17 -11 55 -19 85 -91 348 -301 630 -607 816 -138 84 -368 163
-522 178 -67 7 -195 13 -199 10z"/>
<path d="M13647 12134 c-1 -1 -36 -5 -77 -8 -386 -35 -761 -266 -975 -600 -63
-98 -140 -269 -160 -354 -3 -9 -9 -35 -14 -57 -26 -107 -34 -177 -34 -300 -1
-269 66 -500 210 -725 64 -100 72 -109 188 -225 194 -194 443 -321 715 -366
110 -18 337 -16 444 5 409 79 750 328 939 687 203 384 202 858 -2 1239 -229
430 -662 693 -1159 704 -40 1 -74 1 -75 0z"/>
<path d="M2417 9484 c-1 -1 -27 -4 -57 -7 -283 -29 -536 -275 -574 -559 -10
-72 -8 -158 3 -213 6 -27 14 -63 18 -80 16 -76 87 -190 167 -270 137 -136 282
-196 476 -196 177 0 334 67 467 200 47 47 107 134 127 183 7 18 17 42 21 53
11 26 9 21 23 85 27 122 19 241 -23 365 -76 223 -292 398 -532 431 -49 6 -113
11 -116 8z"/>
<path d="M15699 9486 c-2 -2 -35 -6 -74 -10 -368 -32 -640 -388 -581 -762 74
-462 609 -706 1004 -457 294 185 395 549 241 863 -94 190 -305 338 -509 356
-36 4 -68 8 -71 10 -3 2 -8 2 -10 0z"/>
<path d="M4310 8153 c-156 -15 -348 -71 -485 -143 -135 -71 -219 -133 -335
-249 -289 -291 -416 -653 -377 -1079 4 -41 9 -77 11 -81 2 -3 7 -26 11 -50 10
-67 61 -214 105 -302 90 -182 245 -370 403 -486 68 -50 204 -127 262 -149 173
-65 261 -88 390 -102 99 -10 324 -3 366 13 8 2 25 7 39 9 80 15 119 27 225 69
173 67 301 153 446 297 64 64 189 219 189 234 0 3 13 27 28 53 59 101 119 265
148 408 18 87 23 282 11 390 -24 207 -101 412 -225 600 -57 86 -234 265 -322
327 -123 86 -320 178 -438 204 -145 32 -337 47 -452 37z"/>
<path d="M13608 8155 c-2 -1 -32 -6 -68 -9 -192 -20 -417 -107 -593 -231 -260
-182 -470 -496 -533 -800 -12 -58 -14 -75 -20 -130 -24 -216 2 -418 77 -623
115 -310 353 -571 657 -720 396 -195 852 -179 1250 43 197 110 404 329 511
542 64 127 93 212 127 368 18 84 23 277 11 390 -55 500 -411 941 -890 1100
-144 48 -245 65 -399 69 -70 2 -129 2 -130 1z"/>
<path d="M6987 5504 c-1 -1 -27 -4 -57 -7 -142 -14 -342 -75 -470 -145 -110
-60 -222 -144 -315 -237 -519 -519 -519 -1347 0 -1870 339 -342 833 -471 1299
-340 442 125 797 484 916 927 36 134 43 187 44 343 0 231 -37 391 -141 601
-192 389 -572 659 -1013 720 -49 6 -257 13 -263 8z"/>
<path d="M10960 5503 c-97 -9 -236 -38 -328 -69 -201 -68 -349 -162 -508 -319
-218 -217 -346 -479 -381 -780 -17 -141 -5 -341 27 -467 106 -417 383 -741
785 -915 96 -41 247 -79 370 -91 163 -17 347 -1 505 46 30 9 57 17 60 17 3 1
18 7 33 13 16 7 31 12 33 12 16 0 199 99 256 139 266 186 454 458 532 771 43
173 52 397 22 540 -1 8 -6 33 -10 55 -14 73 -68 229 -107 307 -177 356 -488
609 -866 702 -54 13 -122 27 -151 31 -59 8 -219 12 -272 8z"/>
<path d="M4408 4844 c-2 -1 -30 -5 -64 -8 -62 -6 -136 -28 -209 -62 -179 -84
-329 -287 -360 -489 -7 -44 -7 -178 -1 -210 40 -197 138 -346 295 -451 50 -33
158 -80 206 -89 17 -3 41 -8 55 -11 66 -14 197 -5 282 20 339 100 543 446 464
787 -58 247 -275 456 -518 499 -56 10 -146 18 -150 14z"/>
<path d="M13677 4844 c-1 -1 -22 -5 -47 -8 -118 -14 -252 -68 -325 -132 -16
-14 -41 -36 -55 -48 -35 -29 -102 -121 -133 -181 -124 -244 -78 -543 113 -748
223 -238 577 -278 850 -96 293 196 380 598 194 896 -52 82 -117 151 -190 201
-49 33 -171 88 -214 96 -67 13 -187 26 -193 20z"/>
<path d="M9028 2855 c-2 -1 -25 -5 -53 -9 -230 -28 -442 -198 -525 -421 -31
-85 -32 -89 -37 -205 -5 -104 8 -192 38 -265 7 -16 13 -32 13 -35 6 -32 85
-141 145 -200 125 -124 273 -186 452 -189 183 -3 339 59 470 189 42 41 91 102
110 135 249 436 -40 969 -543 999 -37 2 -68 2 -70 1z"/>
</g>
</svg>
